<svg width="48" height="56" viewBox="0 0 48 56" fill="none" xmlns="http://www.w3.org/2000/svg">
<path opacity="0.4" fill-rule="evenodd" clip-rule="evenodd" d="M26.3368 48.9979L26.3268 32.3544L40.2412 40.7544L26.3368 48.9979ZM23.8473 50.3955H23.9753C23.9598 50.4023 23.9396 50.4091 23.91 50.4091C23.8879 50.4091 23.8672 50.4036 23.8473 50.3955V50.3955ZM5.03493 39.2106C4.98165 39.1787 4.9485 39.1195 4.9485 39.0561L4.9617 19.4564L21.3769 29.366L21.3884 48.9372L5.03493 39.2106ZM23.8535 5.43149C23.8636 5.42555 23.8937 5.40774 23.9401 5.40774C23.9711 5.40774 24.0001 5.41571 24.0269 5.43166L40.2428 15.0764L23.8509 24.9582L7.53316 15.1073L23.8535 5.43149ZM28.7403 27.9098L42.8998 19.3739L42.8883 36.451L28.7403 27.9098ZM45.2924 12.2005L26.5041 1.0256C25.7112 0.554133 24.8256 0.318146 23.9401 0.318146C23.057 0.318146 22.174 0.552606 21.3824 1.02204L2.57914 12.1698C0.993651 13.1096 0.0163312 14.8481 0.0150116 16.73L1.33776e-06 39.0525C-0.00131825 40.9346 0.973692 42.6744 2.55769 43.6165L21.346 54.791C22.1391 55.263 23.0245 55.4987 23.9099 55.4987C24.7931 55.4987 25.676 55.2642 26.4676 54.7949L45.2709 43.647C46.8562 42.7072 47.8337 40.9689 47.8351 39.0868L47.8502 16.7643C47.8514 14.8824 46.8764 13.1426 45.2924 12.2005V12.2005Z" fill="white"/>
<path fill-rule="evenodd" clip-rule="evenodd" d="M23.91 50.4091C23.888 50.4091 23.8674 50.4037 23.8473 50.3956H23.9753C23.9599 50.4023 23.9396 50.4091 23.91 50.4091M23.9403 5.4078C23.9711 5.4078 24.0003 5.41577 24.0269 5.43172L30.16 9.07943L47.8482 19.505L47.8502 16.7644C47.8514 14.8822 46.8764 13.1426 45.2924 12.2004L26.5042 1.02566C25.7112 0.554025 24.8256 0.318207 23.9403 0.318207C23.0572 0.318207 22.1742 0.552667 21.3824 1.0221L2.57913 12.1698C1.10186 13.0456 0.153568 14.6149 0.0298567 16.3475L30.027 34.5883L38.9107 39.9512L40.2412 40.7545L32.9356 45.0858V45.1005L28.2563 47.8747L26.3376 49.0383L26.2827 49.0365C25.5395 49.4365 24.7251 49.6389 23.9099 49.6389C23.0245 49.6389 22.1391 49.4029 21.346 48.9313L14.2964 44.7385V44.7169L0.00198041 36.211L1.02438e-06 39.0526C-0.00115361 40.9345 0.973857 42.6743 2.55786 43.6166L21.346 54.7911C22.1391 55.2629 23.0245 55.4987 23.9099 55.4987C24.7931 55.4987 25.6762 55.2641 26.4676 54.795L45.2709 43.6471C46.7523 42.769 47.7023 41.1937 47.8217 39.4556L42.8325 36.484L39.2109 34.249L20.0696 22.6754L7.5332 15.1072L23.8537 5.43155C23.8636 5.42561 23.8938 5.4078 23.9403 5.4078" fill="white"/>
</svg>
